<?xml version="1.0" encoding="utf-8"?>
<!-- Generator: Adobe Illustrator 25.2.0, SVG Export Plug-In . SVG Version: 6.00 Build 0)  -->
<svg version="1.1" id="Layer_1" xmlns="http://www.w3.org/2000/svg" xmlns:xlink="http://www.w3.org/1999/xlink" x="0px" y="0px"
	 viewBox="0 0 125.7 138.5" style="enable-background:new 0 0 125.7 138.5;" xml:space="preserve">
<style type="text/css">
	.st0{fill:#D8DDE6;}
	.st1{fill:#C1C6CE;}
	.st2{fill:#F3F4F7;}
</style>
<path class="st0" d="M125.7,23.5V48c0,40.4-25.1,76.5-62.9,90.6C25.1,124.4,0,88.3,0,47.9V23.5C13,23.5,23.5,13,23.5,0h78.8
	C102.2,13,112.7,23.5,125.7,23.5z"/>
<path class="st1" d="M62.9,131.7l-0.2-0.1C28.7,118.9,5.8,86,5.8,49.7V27.2h0.5c11.4,0,20.6-9.2,20.6-20.6V6.1h71.8v0.5
	c0,11.4,9.2,20.6,20.6,20.6h0.5v22.5c0,36.3-22.8,69.2-56.8,81.9L62.9,131.7z M6.8,28.2v21.5c0,35.8,22.5,68.3,56,80.9
	c33.5-12.6,56-45.1,56-80.9V28.2c-11.4-0.3-20.8-9.6-21-21.1H27.9C27.7,18.6,18.4,27.9,6.8,28.2z"/>
<g>
	<polygon class="st2" points="37,98.8 37,110.3 63.4,123.5 88.8,110.3 88.8,98.3 63.4,112 	"/>
	<polygon class="st1" points="63.4,112 63.4,123.5 88.8,110.3 88.8,98.3 	"/>
</g>
</svg>
